<mxfile host="app.diagrams.net" agent="Mozilla/5.0 (Windows NT 10.0; Win64; x64) AppleWebKit/537.36 (KHTML, like Gecko) Chrome/133.0.0.0 Safari/537.36" version="26.0.16">
  <diagram name="PÃ¡gina-1" id="_9rLlbIvA-Eh2Iigkpa5">
    <mxGraphModel grid="1" page="1" gridSize="10" guides="1" tooltips="1" connect="1" arrows="1" fold="1" pageScale="1" pageWidth="827" pageHeight="1169" math="0" shadow="0">
      <root>
        <mxCell id="0" />
        <mxCell id="1" parent="0" />
        <mxCell id="u0jWKXptDNxnaJn_ab2E-5" value="" style="rounded=0;whiteSpace=wrap;html=1;" vertex="1" parent="1">
          <mxGeometry x="40" y="150" width="690" height="500" as="geometry" />
        </mxCell>
        <mxCell id="u0jWKXptDNxnaJn_ab2E-8" value="" style="rounded=0;whiteSpace=wrap;html=1;" vertex="1" parent="1">
          <mxGeometry x="160" y="230" width="430" height="118.92" as="geometry" />
        </mxCell>
        <mxCell id="u0jWKXptDNxnaJn_ab2E-7" value="" style="rounded=0;whiteSpace=wrap;html=1;" vertex="1" parent="1">
          <mxGeometry x="160" y="410" width="430" height="140" as="geometry" />
        </mxCell>
        <mxCell id="u0jWKXptDNxnaJn_ab2E-2" value="10.0.0.0/25&lt;br&gt;rede-departamento-pesoal" style="image;aspect=fixed;html=1;points=[];align=center;fontSize=12;image=img/lib/azure2/networking/Subnet.svg;" vertex="1" parent="1">
          <mxGeometry x="210" y="210" width="68" height="40.72" as="geometry" />
        </mxCell>
        <mxCell id="u0jWKXptDNxnaJn_ab2E-3" value="10.0.0.0/24&lt;br&gt;vnet-fiap" style="image;aspect=fixed;html=1;points=[];align=center;fontSize=12;image=img/lib/azure2/networking/Virtual_Networks.svg;" vertex="1" parent="1">
          <mxGeometry x="80" y="130" width="67" height="40" as="geometry" />
        </mxCell>
        <mxCell id="u0jWKXptDNxnaJn_ab2E-4" value="&lt;div&gt;10.0.0.128/25&lt;/div&gt;&lt;div&gt;rede-tecnologia-informacao&lt;/div&gt;&lt;div&gt;&lt;br&gt;&lt;/div&gt;&lt;div&gt;&lt;br&gt;&lt;/div&gt;" style="image;aspect=fixed;html=1;points=[];align=center;fontSize=12;image=img/lib/azure2/networking/Subnet.svg;" vertex="1" parent="1">
          <mxGeometry x="210" y="390" width="68" height="40.72" as="geometry" />
        </mxCell>
        <mxCell id="u0jWKXptDNxnaJn_ab2E-10" value="" style="image;aspect=fixed;html=1;points=[];align=center;fontSize=12;image=img/lib/azure2/compute/Virtual_Machine.svg;" vertex="1" parent="1">
          <mxGeometry x="379" y="257.46" width="69" height="64" as="geometry" />
        </mxCell>
        <mxCell id="u0jWKXptDNxnaJn_ab2E-11" value="" style="image;aspect=fixed;html=1;points=[];align=center;fontSize=12;image=img/lib/azure2/compute/Virtual_Machine.svg;" vertex="1" parent="1">
          <mxGeometry x="379" y="438" width="69" height="64" as="geometry" />
        </mxCell>
      </root>
    </mxGraphModel>
  </diagram>
</mxfile>
